<svg width="360" height="320" viewBox="0 0 360 320" fill="none" xmlns="http://www.w3.org/2000/svg">
<path d="M132.407 126.697C157.593 126.697 178.01 106.28 178.01 81.094C178.01 55.9081 157.593 35.4909 132.407 35.4909C107.221 35.4909 86.8037 55.9081 86.8037 81.094C86.8037 106.28 107.221 126.697 132.407 126.697Z" fill="#9C1DE7"/>
<path d="M102.626 66.2216H120.517" stroke="#DBB9C5" stroke-width="1.66154" stroke-miterlimit="10" stroke-linecap="round"/>
<path d="M102.626 71.3785H120.517" stroke="#DBB9C5" stroke-width="1.66154" stroke-miterlimit="10" stroke-linecap="round"/>
<path d="M102.626 76.5348H120.517" stroke="#DBB9C5" stroke-width="1.66154" stroke-miterlimit="10" stroke-linecap="round"/>
<path d="M337.239 147.539V137.464C337.239 135.543 336.476 133.701 335.118 132.342C333.759 130.984 331.916 130.22 329.995 130.22H304.426C303.475 130.22 302.533 130.033 301.654 129.669C300.775 129.305 299.977 128.771 299.304 128.099C298.631 127.426 298.098 126.627 297.734 125.748C297.37 124.87 297.182 123.928 297.182 122.976V112.901C297.182 111.95 297.37 111.008 297.734 110.129C298.098 109.25 298.631 108.452 299.304 107.779C299.977 107.106 300.775 106.573 301.654 106.209C302.533 105.845 303.475 105.657 304.426 105.657H305.234C307.155 105.657 308.997 104.894 310.356 103.535C311.715 102.177 312.478 100.334 312.478 98.4132V88.3381C312.478 86.4169 311.715 84.5743 310.356 83.2158C308.997 81.8573 307.155 81.0941 305.234 81.0941H71.562C69.6408 81.0941 67.7982 81.8573 66.4397 83.2158C65.0812 84.5743 64.318 86.4169 64.318 88.3381V98.4132C64.318 100.334 65.0812 102.177 66.4397 103.535C67.7982 104.894 69.6408 105.657 71.562 105.657C73.4832 105.657 75.3258 106.42 76.6843 107.779C78.0428 109.137 78.806 110.98 78.806 112.901V122.976C78.806 124.898 78.0428 126.74 76.6843 128.099C75.3258 129.457 73.4832 130.22 71.562 130.22H43.5488C41.6276 130.22 39.785 130.984 38.4265 132.342C37.068 133.701 36.3048 135.543 36.3048 137.464V147.539C36.3048 149.461 37.068 151.303 38.4265 152.662C39.785 154.02 41.6276 154.783 43.5488 154.783H54.5408C56.462 154.783 58.3045 155.547 59.663 156.905C61.0216 158.264 61.7848 160.106 61.7848 162.027V172.103C61.7848 174.024 61.0216 175.866 59.663 177.225C58.3045 178.583 56.462 179.347 54.5408 179.347H54.5142C52.593 179.347 50.7504 180.11 49.3919 181.468C48.0334 182.827 47.2702 184.669 47.2702 186.591V196.666C47.2702 198.587 48.0334 200.429 49.3919 201.788C50.7504 203.146 52.593 203.91 54.5142 203.91H56.1045C57.0558 203.91 57.9978 204.097 58.8767 204.461C59.7556 204.825 60.5541 205.359 61.2268 206.031C61.8995 206.704 62.4331 207.503 62.7971 208.382C63.1612 209.26 63.3485 210.202 63.3485 211.154V221.229C63.3485 222.18 63.1612 223.122 62.7971 224.001C62.4331 224.88 61.8995 225.678 61.2268 226.351C60.5541 227.024 59.7556 227.557 58.8767 227.921C57.9978 228.285 57.0558 228.473 56.1045 228.473H30.0048C28.0836 228.473 26.241 229.236 24.8825 230.595C23.524 231.953 22.7608 233.796 22.7608 235.717V245.792C22.7608 246.743 22.9481 247.685 23.3122 248.564C23.6762 249.443 24.2098 250.242 24.8825 250.914C25.5552 251.587 26.3537 252.12 27.2326 252.485C28.1115 252.849 29.0535 253.036 30.0048 253.036H309.123C311.044 253.036 312.887 252.273 314.245 250.914C315.604 249.556 316.367 247.713 316.367 245.792V235.717C316.367 233.796 315.604 231.953 314.245 230.595C312.887 229.236 311.044 228.473 309.123 228.473H302.842C301.891 228.473 300.949 228.285 300.07 227.921C299.191 227.557 298.392 227.024 297.72 226.351C297.047 225.678 296.513 224.88 296.149 224.001C295.785 223.122 295.598 222.18 295.598 221.229V211.154C295.598 210.202 295.785 209.26 296.149 208.382C296.513 207.503 297.047 206.704 297.72 206.031C298.392 205.359 299.191 204.825 300.07 204.461C300.949 204.097 301.891 203.91 302.842 203.91H317.652C319.573 203.91 321.415 203.146 322.774 201.788C324.132 200.429 324.896 198.587 324.896 196.666V186.591C324.896 185.639 324.708 184.697 324.344 183.818C323.98 182.94 323.447 182.141 322.774 181.468C322.101 180.796 321.303 180.262 320.424 179.898C319.545 179.534 318.603 179.347 317.652 179.347H313.159C311.238 179.347 309.395 178.583 308.037 177.225C306.678 175.866 305.915 174.024 305.915 172.103V162.027C305.915 160.106 306.678 158.264 308.037 156.905C309.395 155.547 311.238 154.783 313.159 154.783H329.995C331.916 154.783 333.759 154.02 335.118 152.662C336.476 151.303 337.239 149.461 337.239 147.539Z" fill="#9C1DE7"/>
<path d="M259.508 26.9639H120.453C117.7 26.9639 115.468 29.1956 115.468 31.9485V240.505C115.468 243.258 117.7 245.489 120.453 245.489H259.508C262.261 245.489 264.493 243.258 264.493 240.505V31.9485C264.493 29.1956 262.261 26.9639 259.508 26.9639Z" fill="#581B98"/>
<path d="M250.507 37.6564H129.453C126.7 37.6564 124.469 39.8881 124.469 42.641V229.813C124.469 232.566 126.7 234.797 129.453 234.797H250.507C253.26 234.797 255.492 232.566 255.492 229.813V42.641C255.492 39.8881 253.26 37.6564 250.507 37.6564Z" fill="#9C1DE7"/>
<path d="M189.981 115.942C203.545 115.942 214.54 104.946 214.54 91.3828C214.54 77.8191 203.545 66.8236 189.981 66.8236C176.417 66.8236 165.422 77.8191 165.422 91.3828C165.422 104.946 176.417 115.942 189.981 115.942Z" fill="#FAEE1C"/>
<path d="M185.854 89.241V84.1342C185.854 83.6222 185.956 83.1152 186.153 82.6426C186.35 82.1699 186.639 81.7411 187.002 81.3807C187.366 81.0203 187.798 80.7356 188.272 80.543C188.747 80.3503 189.255 80.2536 189.767 80.2584H190.192C190.705 80.2534 191.213 80.35 191.687 80.5426C192.162 80.7351 192.593 81.0198 192.957 81.3803C193.321 81.7407 193.61 82.1696 193.807 82.6423C194.004 83.115 194.105 83.6221 194.105 84.1342V85.8546C194.106 85.9699 194.152 86.0803 194.233 86.1621C194.315 86.2439 194.425 86.2906 194.54 86.2921L196.601 86.3014C196.658 86.3017 196.715 86.2905 196.769 86.2686C196.822 86.2467 196.87 86.2146 196.911 86.1739C196.952 86.1333 196.985 86.085 197.007 86.0318C197.029 85.9786 197.04 85.9215 197.041 85.8639V84.4189C197.041 83.5325 196.866 82.6547 196.527 81.8358C196.187 81.0168 195.69 80.2729 195.063 79.6464C194.436 79.02 193.691 78.5233 192.872 78.1849C192.053 77.8464 191.175 77.6729 190.288 77.6741H189.671C188.785 77.6733 187.907 77.8472 187.088 78.1858C186.269 78.5244 185.525 79.0211 184.898 79.6475C184.271 80.2739 183.774 81.0178 183.435 81.8365C183.095 82.6552 182.921 83.5327 182.921 84.4189V89.3775L185.854 89.241Z" fill="#7940B5"/>
<path d="M198.015 103.925C198.531 103.924 199.025 103.719 199.39 103.354C199.755 102.989 199.96 102.495 199.961 101.979V90.9111C199.96 90.3954 199.755 89.9011 199.39 89.5364C199.025 89.1717 198.531 88.9663 198.015 88.965H181.946C181.43 88.9663 180.936 89.1718 180.571 89.5364C180.207 89.9011 180.001 90.3954 180 90.9111V101.979C180.001 102.495 180.207 102.989 180.571 103.354C180.936 103.719 181.43 103.924 181.946 103.925L198.015 103.925Z" fill="#581B98"/>
<path d="M189.981 92.7615C189.428 92.7634 188.899 92.9838 188.508 93.3745C188.118 93.7652 187.897 94.2946 187.896 94.8471C187.905 95.1607 187.987 95.4681 188.134 95.7454C188.281 96.0227 188.489 96.2626 188.743 96.4466V98.8938C188.743 99.222 188.874 99.5367 189.106 99.7687C189.338 100.001 189.653 100.131 189.981 100.131C190.309 100.131 190.624 100.001 190.856 99.7687C191.088 99.5367 191.218 99.222 191.218 98.8938V96.4466C191.472 96.2622 191.68 96.0222 191.827 95.745C191.974 95.4678 192.056 95.1607 192.066 94.8471C192.064 94.2946 191.844 93.7652 191.453 93.3745C191.062 92.9838 190.533 92.7635 189.981 92.7616V92.7615ZM124.469 207.304V230.621C124.469 231.169 124.577 231.712 124.787 232.219C124.997 232.726 125.304 233.186 125.692 233.574C126.08 233.962 126.541 234.269 127.047 234.479C127.554 234.689 128.097 234.797 128.646 234.797H251.316C251.864 234.797 252.407 234.689 252.914 234.479C253.421 234.269 253.881 233.962 254.269 233.574C254.657 233.186 254.965 232.726 255.174 232.219C255.384 231.712 255.492 231.169 255.492 230.621V207.304H124.469ZM255.492 41.8332C255.492 41.2847 255.384 40.7416 255.174 40.2348C254.965 39.7281 254.657 39.2676 254.269 38.8798C253.881 38.4919 253.421 38.1843 252.914 37.9744C252.407 37.7645 251.864 37.6565 251.316 37.6565H128.646C128.097 37.6565 127.554 37.7645 127.047 37.9744C126.541 38.1843 126.08 38.4919 125.692 38.8798C125.304 39.2676 124.997 39.7281 124.787 40.2348C124.577 40.7416 124.469 41.2847 124.469 41.8332V50.1866H255.492V41.8332Z" fill="#7940B5"/>
<path d="M189.981 44.6731C193.856 44.6731 196.998 41.5316 196.998 37.6564C196.998 33.7812 193.856 30.6397 189.981 30.6397C186.106 30.6397 182.964 33.7812 182.964 37.6564C182.964 41.5316 186.106 44.6731 189.981 44.6731Z" fill="#FAEE1C"/>
<path d="M189.981 228.067C193.856 228.067 196.998 224.926 196.998 221.05C196.998 217.175 193.856 214.034 189.981 214.034C186.106 214.034 182.964 217.175 182.964 221.05C182.964 224.926 186.106 228.067 189.981 228.067Z" fill="#FAEE1C"/>
<path d="M177.293 124.532H140.185C139.267 124.532 138.524 125.276 138.524 126.194V136.983C138.524 137.901 139.267 138.645 140.185 138.645H177.293C178.21 138.645 178.954 137.901 178.954 136.983V126.194C178.954 125.276 178.21 124.532 177.293 124.532Z" fill="#FAEE1C"/>
<path d="M240.111 124.532H194.315C193.398 124.532 192.654 125.276 192.654 126.194V187.726C192.654 188.644 193.398 189.388 194.315 189.388H240.111C241.028 189.388 241.772 188.644 241.772 187.726V126.194C241.772 125.276 241.028 124.532 240.111 124.532Z" fill="#F3558E"/>
<path d="M177.293 149.903H140.185C139.267 149.903 138.524 150.647 138.524 151.565V162.354C138.524 163.272 139.267 164.016 140.185 164.016H177.293C178.21 164.016 178.954 163.272 178.954 162.354V151.565C178.954 150.647 178.21 149.903 177.293 149.903Z" fill="#FAEE1C"/>
<path d="M177.293 175.275H140.185C139.267 175.275 138.524 176.019 138.524 176.937V187.726C138.524 188.644 139.267 189.388 140.185 189.388H177.293C178.21 189.388 178.954 188.644 178.954 187.726V176.937C178.954 176.019 178.21 175.275 177.293 175.275Z" fill="#FAEE1C"/>
<path d="M217.213 170.773H203.059C202.786 170.773 202.518 170.702 202.281 170.565C202.044 170.428 201.848 170.232 201.711 169.995C201.575 169.759 201.503 169.49 201.503 169.217C201.503 168.944 201.575 168.675 201.711 168.439L208.788 156.181L215.865 143.924C216.001 143.688 216.198 143.491 216.435 143.354C216.671 143.218 216.94 143.146 217.213 143.146C217.486 143.146 217.754 143.218 217.991 143.354C218.228 143.491 218.424 143.688 218.561 143.924L225.638 156.181L232.714 168.439C232.851 168.675 232.923 168.944 232.923 169.217C232.923 169.49 232.851 169.759 232.714 169.995C232.578 170.232 232.381 170.428 232.145 170.565C231.908 170.702 231.64 170.773 231.366 170.773H217.213Z" fill="#FAEE1C"/>
<path d="M217.992 150.403C217.992 149.973 217.643 149.625 217.213 149.625C216.783 149.625 216.434 149.973 216.434 150.403V162.011C216.434 162.441 216.783 162.79 217.213 162.79C217.643 162.79 217.992 162.441 217.992 162.011V150.403Z" fill="#7940B5"/>
<path d="M219.066 166.428C219.168 165.404 218.42 164.492 217.396 164.39C216.373 164.289 215.461 165.037 215.359 166.06C215.258 167.084 216.006 167.996 217.029 168.098C218.053 168.199 218.965 167.451 219.066 166.428Z" fill="#7940B5"/>
<path d="M96.3983 208.008V194.974C96.3984 193.667 96.6575 192.373 97.1606 191.166C97.6637 189.96 98.4008 188.865 99.3294 187.945C100.258 187.026 101.36 186.299 102.571 185.807C103.782 185.315 105.078 185.069 106.385 185.081H107.472C108.779 185.068 110.076 185.315 111.287 185.806C112.498 186.298 113.6 187.024 114.529 187.944C115.457 188.864 116.195 189.959 116.697 191.166C117.2 192.372 117.459 193.667 117.459 194.974V199.365C117.461 199.659 117.579 199.941 117.786 200.15C117.994 200.359 118.275 200.478 118.57 200.482L123.829 200.505C123.976 200.506 124.122 200.477 124.258 200.422C124.394 200.366 124.517 200.284 124.622 200.18C124.726 200.076 124.809 199.953 124.865 199.817C124.922 199.681 124.951 199.536 124.951 199.389V195.7C124.952 193.438 124.506 191.197 123.64 189.107C122.774 187.017 121.504 185.118 119.903 183.519C118.303 181.92 116.402 180.652 114.311 179.788C112.22 178.924 109.979 178.481 107.716 178.484H106.141C103.879 178.482 101.639 178.926 99.5482 179.791C97.4578 180.655 95.5583 181.923 93.9582 183.522C92.3581 185.12 91.0888 187.019 90.2228 189.109C89.3569 191.198 88.9113 193.438 88.9116 195.7V208.357L96.3983 208.008Z" fill="#F3558E"/>
<path d="M127.44 245.49C128.756 245.486 130.018 244.962 130.948 244.031C131.879 243.1 132.404 241.839 132.407 240.522V212.271C132.404 210.955 131.879 209.693 130.948 208.763C130.017 207.832 128.756 207.307 127.44 207.304H86.4235C85.107 207.307 83.8455 207.832 82.9146 208.763C81.9838 209.693 81.4594 210.955 81.4561 212.271V240.522C81.4594 241.839 81.9838 243.1 82.9146 244.031C83.8455 244.962 85.107 245.486 86.4235 245.49H127.44Z" fill="#FAEE1C"/>
<path d="M106.932 216.995C105.521 216.999 104.17 217.562 103.173 218.559C102.176 219.556 101.614 220.908 101.61 222.318C101.634 223.118 101.842 223.903 102.217 224.611C102.592 225.318 103.124 225.931 103.773 226.401V232.647C103.774 233.484 104.108 234.286 104.7 234.877C105.292 235.469 106.095 235.801 106.932 235.801C107.768 235.801 108.571 235.469 109.163 234.877C109.755 234.286 110.089 233.484 110.09 232.647V226.401C110.738 225.93 111.269 225.317 111.644 224.61C112.019 223.902 112.227 223.118 112.253 222.318C112.249 220.908 111.687 219.556 110.69 218.559C109.693 217.562 108.342 216.999 106.932 216.995Z" fill="#F3558E"/>
<path d="M34.3667 235.813H52.2576" stroke="#DBB9C5" stroke-width="1.66154" stroke-miterlimit="10" stroke-linecap="round"/>
<path d="M34.3667 240.969H52.2576" stroke="#DBB9C5" stroke-width="1.66154" stroke-miterlimit="10" stroke-linecap="round"/>
<path d="M34.3667 246.126H52.2576" stroke="#DBB9C5" stroke-width="1.66154" stroke-miterlimit="10" stroke-linecap="round"/>
<path d="M272.954 155.528H290.845" stroke="#DBB9C5" stroke-width="1.66154" stroke-miterlimit="10" stroke-linecap="round"/>
<path d="M272.954 160.684H290.845" stroke="#DBB9C5" stroke-width="1.66154" stroke-miterlimit="10" stroke-linecap="round"/>
<path d="M272.954 165.841H290.845" stroke="#DBB9C5" stroke-width="1.66154" stroke-miterlimit="10" stroke-linecap="round"/>
<path d="M75.533 175.638C80.558 175.638 84.6316 171.564 84.6316 166.539C84.6316 161.514 80.558 157.441 75.533 157.441C70.508 157.441 66.4344 161.514 66.4344 166.539C66.4344 171.564 70.508 175.638 75.533 175.638Z" fill="#DBB9C5"/>
<path d="M75.9024 152.727C78.5198 152.727 80.6417 150.606 80.6417 147.988C80.6417 145.371 78.5198 143.249 75.9024 143.249C73.285 143.249 71.1631 145.371 71.1631 147.988C71.1631 150.606 73.285 152.727 75.9024 152.727Z" fill="#DBB9C5"/>
<path d="M107.468 154.859C109.734 154.859 111.57 153.023 111.57 150.757C111.57 148.492 109.734 146.656 107.468 146.656C105.203 146.656 103.367 148.492 103.367 150.757C103.367 153.023 105.203 154.859 107.468 154.859Z" fill="#DBB9C5"/>
<path d="M92.5455 149.505C94.0553 149.505 95.2793 148.281 95.2793 146.771C95.2793 145.261 94.0553 144.038 92.5455 144.038C91.0356 144.038 89.8117 145.261 89.8117 146.771C89.8117 148.281 91.0356 149.505 92.5455 149.505Z" fill="#DBB9C5"/>
<path d="M95.7229 168.247C99.3424 168.247 102.277 165.313 102.277 161.693C102.277 158.074 99.3424 155.139 95.7229 155.139C92.1034 155.139 89.1692 158.074 89.1692 161.693C89.1692 165.313 92.1034 168.247 95.7229 168.247Z" fill="#DBB9C5"/>
<path d="M294.603 243.182C299.628 243.182 303.702 239.108 303.702 234.083C303.702 229.058 299.628 224.984 294.603 224.984C289.578 224.984 285.505 229.058 285.505 234.083C285.505 239.108 289.578 243.182 294.603 243.182Z" fill="#DBB9C5"/>
<path d="M275.345 243.306C277.963 243.306 280.084 241.184 280.084 238.567C280.084 235.949 277.963 233.828 275.345 233.828C272.728 233.828 270.606 235.949 270.606 238.567C270.606 241.184 272.728 243.306 275.345 243.306Z" fill="#DBB9C5"/>
<path d="M275.345 225.936C278.965 225.936 281.899 223.002 281.899 219.382C281.899 215.763 278.965 212.829 275.345 212.829C271.726 212.829 268.792 215.763 268.792 219.382C268.792 223.002 271.726 225.936 275.345 225.936Z" fill="#DBB9C5"/>
<path d="M295.346 81.8207C300.371 81.8207 304.444 77.7471 304.444 72.7221C304.444 67.6971 300.371 63.6235 295.346 63.6235C290.321 63.6235 286.247 67.6971 286.247 72.7221C286.247 77.7471 290.321 81.8207 295.346 81.8207Z" fill="#DBB9C5"/>
<path d="M277.297 85.9225C279.563 85.9225 281.399 84.086 281.399 81.8207C281.399 79.5553 279.563 77.7189 277.297 77.7189C275.032 77.7189 273.196 79.5553 273.196 81.8207C273.196 84.086 275.032 85.9225 277.297 85.9225Z" fill="#DBB9C5"/>
<path d="M272.269 72.7221C275.889 72.7221 278.823 69.7879 278.823 66.1684C278.823 62.549 275.889 59.6148 272.269 59.6148C268.65 59.6148 265.715 62.549 265.715 66.1684C265.715 69.7879 268.65 72.7221 272.269 72.7221Z" fill="#DBB9C5"/>
</svg>
